<svg width="56" height="56" viewBox="0 0 56 56" fill="none" xmlns="http://www.w3.org/2000/svg">
<g clip-path="url(#clip0_26_5)">
<path d="M28 4.66663C15.1084 4.66663 4.66669 15.1083 4.66669 28C4.66669 40.8916 15.1084 51.3333 28 51.3333C40.8917 51.3333 51.3334 40.8916 51.3334 28C51.3334 15.1083 40.8917 4.66663 28 4.66663ZM28 11.6666C31.8617 11.6666 35 14.805 35 18.6666C35 22.54 31.8617 25.6666 28 25.6666C24.1384 25.6666 21 22.54 21 18.6666C21 14.805 24.1384 11.6666 28 11.6666ZM28 44.8C22.155 44.8 17.0217 41.8133 14 37.2866C14.0584 32.655 23.345 30.1 28 30.1C32.655 30.1 41.93 32.655 42 37.2866C38.9784 41.8133 33.845 44.8 28 44.8Z" fill="white"/>
</g>
<defs>
<clipPath id="clip0_26_5">
<rect width="56" height="56" fill="white"/>
</clipPath>
</defs>
</svg>
